<svg width="12" height="9" viewBox="0 0 12 9" fill="none" xmlns="http://www.w3.org/2000/svg">
<path d="M4.07812 8.78906L0.164062 4.89844C0.0546875 4.78906 0 4.64844 0 4.47656C0 4.30469 0.0546875 4.16406 0.164062 4.05469L1.03125 3.21094C1.14062 3.08594 1.27344 3.02344 1.42969 3.02344C1.60156 3.02344 1.75 3.08594 1.875 3.21094L4.5 5.83594L10.125 0.210938C10.25 0.0859375 10.3906 0.0234375 10.5469 0.0234375C10.7188 0.0234375 10.8594 0.0859375 10.9688 0.210938L11.8359 1.05469C11.9453 1.16406 12 1.30469 12 1.47656C12 1.64844 11.9453 1.78906 11.8359 1.89844L4.92188 8.78906C4.8125 8.91406 4.67188 8.97656 4.5 8.97656C4.32812 8.97656 4.1875 8.91406 4.07812 8.78906Z" fill="black"/>
</svg>
